PathFileType  4	(X/Y/Z) C:\Users\antoi\Documents\MyRepositories\mobilecap\ResultsAnalysis
DataRate	CameraRate	NumFrames	NumMarkers	Units	OrigDataRate	OrigDataStartFrame	OrigNumFrames
100.0	100.0	5	51	mm	100.0	119	237
Frame#	Time	r_knee			r_shank_antsup			r_ankle			r_calc			r_5meta			r_toe			L_knee			L_shank_antsup			L_ankle			L_calc			L_5meta			L_toe			r_sh2			r_sh3			r_sh4			L_sh2			L_sh3			r_thigh1			r_thigh2			r_thigh3			r_thigh4			r_thigh5			L_thigh1			L_thigh2			L_thigh3			L_thigh4			r.ASIS			r.PSIS			L.ASIS			L.PSIS			C7			R_Shoulder			L_Shoulder			R_Sternum			L_Sternum			R_humerus			R_elbow_med			R_elbow_lat			R_forearm			R_wrist_radius			R_wrist_ulna			L_humerus			L_elbow_med			L_elbow_lat			L_forearm			L_wrist_radius			L_wrist_ulna			R_HJC			L_HJC			R_HJC_reg			L_HJC_reg			
		X1	Y1	Z1	X2	Y2	Z2	X3	Y3	Z3	X4	Y4	Z4	X5	Y5	Z5	X6	Y6	Z6	X7	Y7	Z7	X8	Y8	Z8	X9	Y9	Z9	X10	Y10	Z10	X11	Y11	Z11	X12	Y12	Z12	X13	Y13	Z13	X14	Y14	Z14	X15	Y15	Z15	X16	Y16	Z16	X17	Y17	Z17	X18	Y18	Z18	X19	Y19	Z19	X20	Y20	Z20	X21	Y21	Z21	X22	Y22	Z22	X23	Y23	Z23	X24	Y24	Z24	X25	Y25	Z25	X26	Y26	Z26	X27	Y27	Z27	X28	Y28	Z28	X29	Y29	Z29	X30	Y30	Z30	X31	Y31	Z31	X32	Y32	Z32	X33	Y33	Z33	X34	Y34	Z34	X35	Y35	Z35	X36	Y36	Z36	X37	Y37	Z37	X38	Y38	Z38	X39	Y39	Z39	X40	Y40	Z40	X41	Y41	Z41	X42	Y42	Z42	X43	Y43	Z43	X44	Y44	Z44	X45	Y45	Z45	X46	Y46	Z46	X47	Y47	Z47	X48	Y48	Z48	X49	Y49	Z49	X50	Y50	Z50	X51	Y51	Z51	

119	1.18000000	-448.70138	623.10392	-430.79583	-430.83214	551.20673	-406.55620	-460.89884	240.93317	-440.24290	-527.12427	197.80424	-479.09661	-353.43793	195.63561	-424.90378	-316.29277	228.89735	-477.32234	-459.49031	661.23322	-787.02977	-441.29001	586.27536	-795.42477	-586.36757	309.44614	-774.63746	-663.50109	298.03297	-725.83411	-515.80533	226.22231	-794.37170	-460.14326	238.37228	-743.08745	-435.75977	437.48695	-402.59570	-505.71721	552.44452	-415.06500	-517.01602	436.85736	-413.72578	-521.24028	625.86729	-809.24443	-562.25793	510.81061	-813.00897	-511.36646	929.68145	-453.10948	-458.63303	830.64374	-440.41260	-489.45964	793.43584	-393.15577	-595.06688	893.44368	-383.45804	-546.11355	786.99899	-387.91018	-539.30287	944.06516	-760.47745	-467.79126	826.05720	-778.88369	-640.27130	887.22297	-776.77005	-560.57797	770.08965	-791.69264	-540.11061	1038.16527	-456.84422	-717.16504	1092.89257	-504.59619	-567.32438	1054.71161	-699.14696	-733.25297	1100.12274	-609.72699	-462.25850	1511.55377	-553.80094	-424.16853	1487.14824	-442.42768	-424.70071	1502.72938	-673.43391	-378.39871	1394.25495	-543.56614	-381.62182	1394.09824	-587.89742	-527.48056	1457.40794	-250.16400	-602.17689	1368.90094	-191.88290	-584.11226	1450.23676	-182.87397	-471.74032	1424.64303	-198.79065	-369.93583	1385.85007	-220.77128	-364.22187	1379.54039	-176.79643	-413.31769	1483.88143	-785.11407	-526.42718	1413.33216	-974.43800	-493.93058	1479.65592	-983.86739	-395.27323	1430.92343	-944.58906	-316.04282	1354.00396	-898.57228	-301.53084	1351.72553	-933.03235	-619.87366	977.75543	-475.60516	-637.33102	993.56211	-674.50745	-615.01598	974.89983	-484.35811	-639.35793	985.83899	-643.43118	
120	1.19000000	-439.08254	605.11674	-430.67809	-420.47149	534.19029	-405.75621	-439.85434	222.25419	-438.88105	-503.38407	175.87361	-478.72861	-330.71659	181.87779	-423.12433	-294.43873	217.69417	-474.12416	-446.53716	644.97567	-787.18856	-425.38787	571.18970	-796.39939	-555.10340	286.53088	-778.05039	-632.33278	270.72850	-729.17194	-479.88084	207.39657	-796.21161	-425.49417	223.07678	-744.75259	-422.61138	420.13710	-401.77453	-495.04857	533.30995	-416.88504	-503.52443	417.11007	-415.19948	-507.38642	606.68422	-809.08946	-542.43292	489.61025	-813.92147	-500.91784	911.87171	-451.23277	-448.84956	812.13735	-438.66523	-481.10150	774.63484	-392.94857	-586.32933	875.15412	-384.23390	-537.63333	768.48071	-388.53404	-528.52134	927.06023	-761.01827	-456.29950	809.31090	-778.99249	-629.12809	869.39618	-776.57821	-548.71773	752.65743	-791.17822	-529.65093	1019.68093	-456.37873	-706.46164	1075.12755	-504.23144	-556.92015	1037.73382	-699.58194	-722.83892	1082.29068	-609.26366	-448.28998	1492.24307	-552.91918	-408.73522	1467.60214	-442.18705	-409.55291	1484.08090	-670.96062	-365.26716	1374.22108	-543.07261	-368.24300	1374.52731	-586.76496	-517.99880	1442.42870	-252.62477	-598.82991	1356.73514	-196.96351	-577.06145	1437.30500	-187.17905	-465.86436	1406.56719	-202.36934	-366.00846	1363.10202	-223.80403	-360.84485	1356.62464	-179.88147	-403.10063	1466.24488	-784.37696	-530.69292	1400.12299	-966.89052	-496.60443	1465.34895	-978.31121	-398.38902	1413.84957	-941.71088	-320.68854	1334.71329	-897.57292	-307.20440	1331.43174	-932.28630	-609.35888	959.52845	-475.86749	-626.92767	976.32698	-674.67886	-604.63388	957.25707	-483.73775	-629.53108	968.14459	-643.40160	
121	1.20000000	-429.05848	586.46870	-430.49442	-410.62373	516.07896	-405.35887	-419.92520	203.21849	-437.54656	-480.76584	153.98654	-478.59307	-309.45085	167.41895	-421.06395	-274.09929	205.39213	-471.06543	-433.51926	627.69838	-787.56336	-409.45566	555.14770	-797.14974	-523.84699	263.73406	-780.49746	-600.66773	243.53797	-732.40503	-443.81390	189.19677	-797.32559	-391.05456	208.63194	-745.70729	-410.22648	401.97002	-400.57166	-484.63281	513.43511	-419.09093	-490.51745	396.99877	-417.24307	-493.07846	586.58915	-809.26956	-522.05130	467.88160	-814.93040	-490.78798	893.69445	-449.46308	-438.75663	793.45132	-437.48128	-472.21937	755.48678	-392.72893	-577.17086	856.30082	-384.53485	-528.61241	749.62689	-388.85598	-517.66598	909.00468	-761.92274	-444.81420	791.42025	-779.07950	-617.97197	850.47068	-776.28204	-536.89984	734.21877	-790.82040	-519.09717	1000.11173	-455.93630	-695.73370	1056.43917	-504.03019	-546.52048	1019.33650	-699.71140	-712.55729	1063.44485	-608.97834	-434.37975	1471.74566	-551.77354	-393.66008	1446.42947	-441.99558	-394.68657	1463.88542	-668.79186	-352.12143	1353.02444	-542.53211	-354.65737	1353.66236	-586.09956	-508.14778	1426.09483	-254.88738	-595.11780	1343.24470	-202.35181	-569.44304	1422.74775	-191.48447	-459.77143	1386.77690	-206.24903	-362.10992	1338.65195	-227.05352	-357.60385	1331.81746	-183.23275	-393.44793	1446.85321	-783.58082	-534.92784	1385.72783	-958.20503	-499.27366	1449.71761	-971.76067	-401.57134	1395.48079	-938.04070	-325.90404	1313.80528	-895.70990	-313.30788	1309.44150	-930.63782	-598.97801	940.32150	-475.98581	-616.59306	957.80294	-674.73518	-594.15408	938.64197	-482.90923	-619.80488	949.32353	-642.91573	
122	1.21000000	-418.76478	567.35771	-429.98480	-400.71968	496.71125	-405.39817	-401.07034	183.70205	-436.66051	-459.45776	132.51747	-479.03920	-289.53255	151.99448	-418.85817	-255.20335	191.79958	-468.49087	-420.09309	609.55905	-788.03860	-393.17346	538.35137	-797.82260	-492.89980	241.32906	-781.92503	-568.71341	216.92111	-734.91195	-408.17768	171.32984	-797.50276	-357.18897	194.83881	-746.02176	-398.16872	383.15275	-399.08259	-474.07786	492.76877	-420.89211	-477.60485	376.46939	-418.94137	-478.07226	565.91095	-809.83086	-501.24895	446.05284	-816.08950	-480.65302	874.80071	-447.63803	-428.36215	774.92114	-436.87747	-462.46044	736.30817	-392.64472	-567.48120	836.94947	-384.31696	-518.80054	730.58698	-388.80891	-506.75929	889.94795	-763.06612	-433.30366	772.57711	-779.31634	-606.80261	830.42838	-775.92847	-525.04225	714.74198	-790.30181	-508.75638	979.22785	-456.06735	-685.05949	1036.80005	-503.95157	-536.27016	999.03517	-699.12034	-702.34259	1043.67525	-608.92924	-420.50211	1450.12867	-550.25766	-378.95456	1423.70320	-441.60577	-380.13471	1442.07992	-667.02538	-338.86787	1330.72285	-541.84217	-340.90428	1331.43304	-585.76485	-497.98311	1408.07532	-257.17616	-590.93394	1328.30120	-208.56175	-561.27626	1406.34855	-195.52626	-453.59320	1365.12067	-210.17294	-358.40094	1312.23181	-230.50708	-354.47882	1305.07738	-186.88426	-384.50051	1425.49218	-782.53917	-538.95293	1369.95147	-948.77311	-501.64365	1432.53809	-964.31398	-404.72321	1375.65032	-933.75249	-331.27588	1291.46411	-892.68661	-319.70743	1286.21310	-927.90631	-589.06054	919.98405	-475.94021	-606.64096	937.75609	-674.66667	-583.95889	918.98927	-482.41371	-610.21219	929.43507	-641.89800	
123	1.22000000	-407.99396	547.74420	-429.30014	-389.89014	476.51048	-404.95363	-383.30752	163.98564	-436.65762	-439.78329	111.79038	-479.97814	-271.07803	135.47331	-416.73881	-237.43095	176.43294	-466.43319	-405.99198	590.92585	-788.71455	-376.16365	521.13314	-798.74670	-462.45648	219.60232	-782.89268	-536.89875	191.23592	-736.14094	-373.80528	153.48915	-796.81877	-324.31637	181.31412	-746.43450	-385.33501	363.55512	-398.16283	-462.77516	471.65332	-421.66454	-464.50728	355.51858	-419.95996	-462.13293	545.08085	-810.73948	-480.17540	424.46115	-817.24017	-470.31352	855.24459	-446.24384	-417.56407	756.26647	-436.32983	-451.60664	717.03619	-392.56756	-557.24950	817.09892	-383.65796	-507.95457	711.06939	-388.59188	-495.96245	869.91716	-763.95156	-421.71120	753.05670	-779.99401	-595.64626	809.29242	-775.63871	-512.92548	694.35476	-789.85157	-498.82149	957.03928	-456.85023	-674.62281	1016.18967	-503.76719	-526.10263	977.17659	-698.76525	-691.93019	1022.99159	-609.16456	-406.60217	1427.22145	-548.96418	-364.48166	1399.58163	-440.88773	-365.83240	1418.59973	-665.69019	-325.47442	1307.16063	-541.15827	-327.17192	1307.98803	-585.36955	-487.49231	1387.98416	-259.49553	-586.12787	1311.67572	-215.50184	-552.60145	1387.81491	-199.32595	-447.27279	1341.45427	-213.84033	-354.97168	1283.74973	-234.17095	-351.48125	1276.22696	-190.77276	-376.06224	1402.36987	-781.46715	-542.59441	1352.60723	-938.72179	-503.64533	1413.55553	-956.35004	-407.80237	1354.06955	-928.91208	-336.55069	1267.79604	-888.54275	-326.20036	1261.87264	-924.16896	-579.53690	898.45703	-476.11301	-597.07512	916.46179	-674.82186	-574.52714	898.15369	-482.79391	-600.59874	908.39872	-641.56818	
